<mxfile host="app.diagrams.net" modified="2024-11-04T11:55:26.808Z" agent="Mozilla/5.0 (Windows NT 10.0; Win64; x64) AppleWebKit/537.36 (KHTML, like Gecko) Chrome/130.0.0.0 Safari/537.36" etag="zSaivpQO0JkoLd3djJ51" version="24.7.1" type="github">
  <diagram name="Страница — 1" id="fCkpRWh99aBojFZ-7_Tk">
    <mxGraphModel dx="658" dy="346" grid="0" gridSize="10" guides="1" tooltips="1" connect="1" arrows="1" fold="1" page="1" pageScale="1" pageWidth="826" pageHeight="1169" math="0" shadow="0">
      <root>
        <mxCell id="0" />
        <mxCell id="1" parent="0" />
        <mxCell id="arIyV5iu4nvGZHiWGCjP-19" value="" style="rounded=1;whiteSpace=wrap;html=1;fillColor=none;dashed=1;" vertex="1" parent="1">
          <mxGeometry x="440" y="140" width="130" height="110" as="geometry" />
        </mxCell>
        <mxCell id="arIyV5iu4nvGZHiWGCjP-18" value="" style="rounded=1;whiteSpace=wrap;html=1;fillColor=none;dashed=1;" vertex="1" parent="1">
          <mxGeometry x="100" y="140" width="120" height="110" as="geometry" />
        </mxCell>
        <mxCell id="arIyV5iu4nvGZHiWGCjP-1" value="БД" style="rounded=0;whiteSpace=wrap;html=1;" vertex="1" parent="1">
          <mxGeometry x="290" y="60" width="100" height="50" as="geometry" />
        </mxCell>
        <mxCell id="arIyV5iu4nvGZHiWGCjP-2" value="Сервер" style="rounded=0;whiteSpace=wrap;html=1;" vertex="1" parent="1">
          <mxGeometry x="290" y="140" width="100" height="50" as="geometry" />
        </mxCell>
        <mxCell id="arIyV5iu4nvGZHiWGCjP-3" value="Мобильное приложение" style="rounded=0;whiteSpace=wrap;html=1;" vertex="1" parent="1">
          <mxGeometry x="290" y="220" width="100" height="50" as="geometry" />
        </mxCell>
        <mxCell id="arIyV5iu4nvGZHiWGCjP-4" value="Прибор КЧСМ" style="rounded=0;whiteSpace=wrap;html=1;" vertex="1" parent="1">
          <mxGeometry x="110" y="180" width="100" height="50" as="geometry" />
        </mxCell>
        <mxCell id="arIyV5iu4nvGZHiWGCjP-5" value="Классификатор глазных болезней" style="rounded=0;whiteSpace=wrap;html=1;" vertex="1" parent="1">
          <mxGeometry x="110" y="330" width="100" height="50" as="geometry" />
        </mxCell>
        <mxCell id="arIyV5iu4nvGZHiWGCjP-6" value="VR-очки" style="rounded=0;whiteSpace=wrap;html=1;" vertex="1" parent="1">
          <mxGeometry x="460" y="180" width="100" height="50" as="geometry" />
        </mxCell>
        <mxCell id="arIyV5iu4nvGZHiWGCjP-7" value="Голосовой ассистент" style="rounded=0;whiteSpace=wrap;html=1;" vertex="1" parent="1">
          <mxGeometry x="470" y="330" width="100" height="50" as="geometry" />
        </mxCell>
        <mxCell id="arIyV5iu4nvGZHiWGCjP-8" value="Алгоритмы тестирования остроты зрения" style="rounded=0;whiteSpace=wrap;html=1;" vertex="1" parent="1">
          <mxGeometry x="230" y="330" width="100" height="50" as="geometry" />
        </mxCell>
        <mxCell id="arIyV5iu4nvGZHiWGCjP-9" value="Алгоритмы тестирования цветоощущения" style="rounded=0;whiteSpace=wrap;html=1;" vertex="1" parent="1">
          <mxGeometry x="350" y="330" width="100" height="50" as="geometry" />
        </mxCell>
        <mxCell id="arIyV5iu4nvGZHiWGCjP-10" value="" style="endArrow=classic;startArrow=classic;html=1;rounded=0;exitX=0.5;exitY=0;exitDx=0;exitDy=0;entryX=0.5;entryY=1;entryDx=0;entryDy=0;" edge="1" parent="1" source="arIyV5iu4nvGZHiWGCjP-2" target="arIyV5iu4nvGZHiWGCjP-1">
          <mxGeometry width="50" height="50" relative="1" as="geometry">
            <mxPoint x="480" y="60" as="sourcePoint" />
            <mxPoint x="530" y="10" as="targetPoint" />
          </mxGeometry>
        </mxCell>
        <mxCell id="arIyV5iu4nvGZHiWGCjP-11" value="" style="endArrow=classic;startArrow=classic;html=1;rounded=0;exitX=0.5;exitY=0;exitDx=0;exitDy=0;entryX=0.5;entryY=1;entryDx=0;entryDy=0;" edge="1" parent="1" source="arIyV5iu4nvGZHiWGCjP-3" target="arIyV5iu4nvGZHiWGCjP-2">
          <mxGeometry width="50" height="50" relative="1" as="geometry">
            <mxPoint x="350" y="150" as="sourcePoint" />
            <mxPoint x="350" y="120" as="targetPoint" />
          </mxGeometry>
        </mxCell>
        <mxCell id="arIyV5iu4nvGZHiWGCjP-12" value="" style="endArrow=classic;startArrow=classic;html=1;rounded=0;exitX=1;exitY=0.5;exitDx=0;exitDy=0;entryX=0;entryY=0.5;entryDx=0;entryDy=0;edgeStyle=orthogonalEdgeStyle;" edge="1" parent="1" source="arIyV5iu4nvGZHiWGCjP-3" target="arIyV5iu4nvGZHiWGCjP-6">
          <mxGeometry width="50" height="50" relative="1" as="geometry">
            <mxPoint x="360" y="160" as="sourcePoint" />
            <mxPoint x="360" y="130" as="targetPoint" />
          </mxGeometry>
        </mxCell>
        <mxCell id="arIyV5iu4nvGZHiWGCjP-14" value="" style="endArrow=classic;startArrow=classic;html=1;rounded=0;exitX=0.5;exitY=0;exitDx=0;exitDy=0;entryX=0.138;entryY=0.998;entryDx=0;entryDy=0;edgeStyle=orthogonalEdgeStyle;entryPerimeter=0;" edge="1" parent="1" source="arIyV5iu4nvGZHiWGCjP-5" target="arIyV5iu4nvGZHiWGCjP-3">
          <mxGeometry width="50" height="50" relative="1" as="geometry">
            <mxPoint x="400" y="255" as="sourcePoint" />
            <mxPoint x="470" y="205" as="targetPoint" />
          </mxGeometry>
        </mxCell>
        <mxCell id="arIyV5iu4nvGZHiWGCjP-15" value="" style="endArrow=classic;startArrow=classic;html=1;rounded=0;exitX=0.838;exitY=0.982;exitDx=0;exitDy=0;entryX=0.5;entryY=0;entryDx=0;entryDy=0;edgeStyle=orthogonalEdgeStyle;exitPerimeter=0;" edge="1" parent="1" source="arIyV5iu4nvGZHiWGCjP-3" target="arIyV5iu4nvGZHiWGCjP-7">
          <mxGeometry width="50" height="50" relative="1" as="geometry">
            <mxPoint x="410" y="265" as="sourcePoint" />
            <mxPoint x="480" y="215" as="targetPoint" />
          </mxGeometry>
        </mxCell>
        <mxCell id="arIyV5iu4nvGZHiWGCjP-16" value="" style="endArrow=classic;startArrow=classic;html=1;rounded=0;exitX=0.625;exitY=0.99;exitDx=0;exitDy=0;edgeStyle=orthogonalEdgeStyle;exitPerimeter=0;" edge="1" parent="1" source="arIyV5iu4nvGZHiWGCjP-3" target="arIyV5iu4nvGZHiWGCjP-9">
          <mxGeometry width="50" height="50" relative="1" as="geometry">
            <mxPoint x="384" y="279" as="sourcePoint" />
            <mxPoint x="530" y="320" as="targetPoint" />
            <Array as="points">
              <mxPoint x="353" y="310" />
              <mxPoint x="400" y="310" />
            </Array>
          </mxGeometry>
        </mxCell>
        <mxCell id="arIyV5iu4nvGZHiWGCjP-17" value="" style="endArrow=classic;startArrow=classic;html=1;rounded=0;exitX=0.404;exitY=1.023;exitDx=0;exitDy=0;edgeStyle=orthogonalEdgeStyle;exitPerimeter=0;entryX=0.5;entryY=0;entryDx=0;entryDy=0;" edge="1" parent="1" source="arIyV5iu4nvGZHiWGCjP-3" target="arIyV5iu4nvGZHiWGCjP-8">
          <mxGeometry width="50" height="50" relative="1" as="geometry">
            <mxPoint x="367" y="280" as="sourcePoint" />
            <mxPoint x="410" y="320" as="targetPoint" />
            <Array as="points">
              <mxPoint x="330" y="310" />
            </Array>
          </mxGeometry>
        </mxCell>
        <mxCell id="arIyV5iu4nvGZHiWGCjP-20" value="" style="rounded=1;whiteSpace=wrap;html=1;fillColor=none;dashed=1;" vertex="1" parent="1">
          <mxGeometry x="90" y="290" width="500" height="120" as="geometry" />
        </mxCell>
        <mxCell id="arIyV5iu4nvGZHiWGCjP-21" value="&lt;b&gt;Часть 1&lt;/b&gt;" style="text;html=1;align=center;verticalAlign=middle;whiteSpace=wrap;rounded=0;" vertex="1" parent="1">
          <mxGeometry x="120" y="140" width="60" height="30" as="geometry" />
        </mxCell>
        <mxCell id="arIyV5iu4nvGZHiWGCjP-22" value="&lt;b&gt;Часть 2&lt;/b&gt;" style="text;html=1;align=center;verticalAlign=middle;whiteSpace=wrap;rounded=0;" vertex="1" parent="1">
          <mxGeometry x="470" y="140" width="60" height="30" as="geometry" />
        </mxCell>
        <mxCell id="arIyV5iu4nvGZHiWGCjP-23" value="&lt;b&gt;Часть 3&lt;/b&gt;" style="text;html=1;align=center;verticalAlign=middle;whiteSpace=wrap;rounded=0;" vertex="1" parent="1">
          <mxGeometry x="310" y="380" width="60" height="30" as="geometry" />
        </mxCell>
      </root>
    </mxGraphModel>
  </diagram>
</mxfile>
